<svg width="70" height="70" viewBox="0 0 70 70" fill="none" xmlns="http://www.w3.org/2000/svg">
<path d="M33.1328 14.7736C33.2344 14.8751 33.355 14.9557 33.4877 15.0107C33.6204 15.0656 33.7626 15.0939 33.9062 15.0939C34.0499 15.0939 34.1921 15.0656 34.3248 15.0107C34.4575 14.9557 34.5781 14.8751 34.6797 14.7736L40.4265 9.02631C40.7866 8.66622 41.0723 8.23873 41.2672 7.76824C41.4621 7.29776 41.5624 6.79349 41.5624 6.28424C41.5624 5.77498 41.4621 5.27071 41.2672 4.80022C41.0724 4.32972 40.7867 3.90222 40.4266 3.54211C40.0665 3.182 39.6391 2.89635 39.1686 2.70145C38.6981 2.50656 38.1938 2.40624 37.6846 2.40623C37.1753 2.40621 36.671 2.50651 36.2005 2.70138C35.7301 2.89625 35.3025 3.18189 34.9424 3.54197L33.9062 4.57817L32.8701 3.54197C32.1413 2.82164 31.1572 2.41898 30.1325 2.42195C29.1079 2.42492 28.1261 2.83328 27.4016 3.55782C26.677 4.28236 26.2687 5.26419 26.2658 6.28882C26.2628 7.31346 26.6655 8.29762 27.3859 9.02631L33.1328 14.7736ZM30.128 4.59375C30.3501 4.59316 30.5701 4.63662 30.7753 4.72162C30.9805 4.80662 31.1668 4.93147 31.3234 5.08895L33.1328 6.89842C33.2344 6.99999 33.355 7.08056 33.4877 7.13553C33.6204 7.1905 33.7626 7.21879 33.9062 7.21879C34.0499 7.21879 34.1921 7.1905 34.3248 7.13553C34.4575 7.08056 34.5781 6.99999 34.6797 6.89842L36.4891 5.08895C36.8061 4.77191 37.2361 4.59378 37.6844 4.59376C38.1328 4.59373 38.5628 4.77181 38.8798 5.08881C39.1968 5.40581 39.375 5.83578 39.375 6.28411C39.375 6.73245 39.1969 7.16243 38.8799 7.47947L33.9062 12.4533L28.9326 7.47947C28.6961 7.24306 28.5351 6.94184 28.4699 6.61391C28.4047 6.28598 28.4381 5.94608 28.5661 5.63718C28.6941 5.32829 28.9108 5.06428 29.1888 4.87855C29.4668 4.69282 29.7937 4.59371 30.128 4.59375Z" fill="#FFAF00"/>
<path d="M21.9024 43.5062C21.9278 44.1011 22.0707 44.6851 22.323 45.2244C22.5754 45.7638 22.932 46.2477 23.3724 46.6485L30.9965 53.5347C31.93 54.3798 33.0263 55.0254 34.2182 55.4317L40.2937 57.5106L51.491 67.624C51.6919 67.8056 51.9532 67.9061 52.224 67.9062C52.2425 67.9062 52.2611 67.9062 52.2797 67.9047C52.5694 67.8899 52.8414 67.7607 53.0359 67.5455L66.9649 52.1235C67.0612 52.0169 67.1356 51.8924 67.1837 51.757C67.2319 51.6217 67.2529 51.4782 67.2456 51.3347C67.2383 51.1913 67.2028 51.0507 67.1412 50.9209C67.0795 50.7912 66.9929 50.6748 66.8863 50.5786L55.6546 40.434L52.993 35.7246C52.5016 34.8546 51.8729 34.0698 51.1311 33.4004L42.0616 25.2088L42.2488 23.9415C42.4307 22.7056 42.8243 21.5102 43.4122 20.408C43.6744 19.9151 43.8359 19.3749 43.8872 18.8189C43.9386 18.2629 43.8788 17.7023 43.7114 17.1696C43.544 16.637 43.2723 16.143 42.9121 15.7164C42.5519 15.2898 42.1104 14.9391 41.6134 14.6847C41.1163 14.4304 40.5736 14.2775 40.0169 14.2349C39.4602 14.1924 38.9006 14.261 38.3707 14.4368C37.8407 14.6126 37.3511 14.8921 36.9302 15.259C36.5093 15.6259 36.1657 16.0729 35.9192 16.5739L34.8694 18.7126L32.6388 16.6979C31.7861 15.9351 30.6697 15.5347 29.5266 15.5818C28.3834 15.6289 27.3037 16.1197 26.5167 16.9501C26.1226 17.3706 25.817 17.8659 25.6181 18.4068C25.4192 18.9476 25.331 19.5229 25.3587 20.0985C25.384 20.6934 25.527 21.2773 25.7793 21.8166C26.0315 22.356 26.3882 22.84 26.8285 23.2407L31.2719 27.2542C30.3649 27.5402 29.578 28.1183 29.034 28.8985C28.4901 29.6786 28.2197 30.6169 28.265 31.5669C28.2811 31.9466 28.3454 32.3228 28.4564 32.6863C27.4545 32.8135 26.528 33.2856 25.8362 34.0215C25.4422 34.442 25.1366 34.9374 24.9377 35.4782C24.7388 36.0191 24.6506 36.5944 24.6784 37.17C24.7074 37.8484 24.8892 38.5115 25.2101 39.1099C24.2327 39.3422 23.3673 39.9087 22.7633 40.7115C22.1593 41.5142 21.8548 42.5028 21.9024 43.5062ZM37.8829 17.5377C38.0015 17.2974 38.1666 17.0831 38.3688 16.9071C38.5709 16.7312 38.806 16.5972 39.0604 16.513C39.3148 16.4288 39.5834 16.3959 39.8505 16.4164C40.1177 16.4369 40.3782 16.5103 40.6167 16.6324C40.8553 16.7545 41.0672 16.9228 41.2401 17.1275C41.413 17.3322 41.5436 17.5692 41.6241 17.8248C41.7045 18.0804 41.7334 18.3494 41.709 18.6163C41.6846 18.8831 41.6073 19.1425 41.4818 19.3792C40.8036 20.6503 40.3406 22.0249 40.1116 23.4473L37.6865 21.257L36.5577 20.2375L37.8829 17.5377ZM24.6557 41.8545C25.0492 41.4394 25.589 41.1941 26.1605 41.1706C26.732 41.1471 27.2901 41.3473 27.7164 41.7288L31.7747 45.3943C31.881 45.4924 32.0057 45.5683 32.1415 45.6179C32.2774 45.6674 32.4217 45.6895 32.5661 45.6829C32.7106 45.6763 32.8523 45.6412 32.983 45.5795C33.1138 45.5178 33.231 45.4308 33.328 45.3235C33.4249 45.2162 33.4995 45.0907 33.5477 44.9543C33.5958 44.818 33.6164 44.6735 33.6083 44.5291C33.6002 44.3847 33.5636 44.2434 33.5005 44.1133C33.4375 43.9832 33.3492 43.8669 33.2409 43.7711L29.1826 40.1055L29.1808 40.1037L27.6141 38.6887C27.3889 38.4834 27.2067 38.2354 27.0778 37.9593C26.949 37.6831 26.8762 37.3841 26.8635 37.0796C26.8488 36.7946 26.8914 36.5096 26.9889 36.2413C27.0864 35.9731 27.2367 35.7272 27.4311 35.5182C27.8241 35.1038 28.3631 34.8587 28.9337 34.8347C29.5044 34.8108 30.062 35.0099 30.4884 35.3899L30.49 35.3913L33.7379 38.3249C33.8445 38.4212 33.969 38.4956 34.1043 38.5438C34.2397 38.5921 34.3832 38.6132 34.5267 38.6059C34.6702 38.5987 34.8108 38.5632 34.9406 38.5016C35.0704 38.44 35.1868 38.3535 35.2832 38.2469C35.3795 38.1403 35.4539 38.0158 35.5021 37.8804C35.5503 37.7451 35.5714 37.6016 35.5642 37.4581C35.5569 37.3146 35.5215 37.1739 35.4599 37.0441C35.3983 36.9143 35.3117 36.798 35.2052 36.7016L31.9582 33.7695L31.9563 33.7678L31.2012 33.086C30.976 32.8806 30.7938 32.6327 30.6649 32.3565C30.5361 32.0804 30.4633 31.7814 30.4506 31.4769C30.4358 31.1919 30.4784 30.9068 30.5759 30.6386C30.6734 30.3704 30.8238 30.1244 31.0181 29.9154C31.4113 29.5008 31.9504 29.2555 32.5213 29.2316C33.0922 29.2077 33.6499 29.4071 34.0763 29.7875L34.0789 29.7898L36.5137 31.9891C36.6203 32.0854 36.7449 32.1597 36.8802 32.2079C37.0156 32.2561 37.1591 32.2772 37.3026 32.2699C37.4461 32.2626 37.5868 32.2271 37.7166 32.1655C37.8463 32.1038 37.9627 32.0172 38.059 31.9106C38.1553 31.804 38.2297 31.6794 38.2779 31.544C38.3261 31.4087 38.3471 31.2652 38.3398 31.1217C38.3325 30.9782 38.2971 30.8375 38.2354 30.7077C38.1738 30.5779 38.0872 30.4616 37.9805 30.3652L35.5456 28.1665L33.9218 26.6998L28.295 21.6176C28.0698 21.4122 27.8875 21.1643 27.7587 20.8881C27.6299 20.6119 27.557 20.3129 27.5444 20.0084C27.5296 19.7234 27.5723 19.4383 27.6698 19.1701C27.7673 18.9018 27.9177 18.6559 28.1121 18.4469C28.5056 18.0322 29.0452 17.7871 29.6165 17.7636C30.1878 17.7401 30.7457 17.9401 31.172 18.3211L49.6648 35.0239C50.232 35.5359 50.7129 36.136 51.0887 36.8013L53.8368 41.6645C53.8945 41.7668 53.9684 41.8591 54.0555 41.9379L64.6073 51.4686L52.1446 65.2675L41.5928 55.7368C41.4829 55.6375 41.354 55.5615 41.2138 55.5136L34.9264 53.3613C34.015 53.0506 33.1766 52.557 32.4627 51.9108L24.8387 45.0245C24.6136 44.8191 24.4313 44.5712 24.3025 44.295C24.1736 44.0188 24.1008 43.7198 24.0881 43.4153C24.0734 43.1304 24.116 42.8455 24.2135 42.5773C24.311 42.3092 24.4614 42.0634 24.6557 41.8545Z" fill="#FFAF00"/>
</svg>
