<svg width="27" height="27" viewBox="0 0 27 27" fill="none" xmlns="http://www.w3.org/2000/svg">
<rect width="26.6082" height="26.6082" rx="10" fill="#FFAF00"/>
<g clip-path="url(#clip0_40:862)">
<path d="M20.8947 12.115H14.4924V5.71269C14.4924 4.90917 13.8409 4.25732 13.037 4.25732C12.2331 4.25732 11.5817 4.9088 11.5817 5.71269V12.115H5.18009C4.37657 12.115 3.7251 12.7665 3.7251 13.5704C3.7251 14.3743 4.3762 15.0254 5.18009 15.0254H11.5824V21.4277C11.5824 22.2312 12.2339 22.8831 13.0378 22.8831C13.8417 22.8831 14.4931 22.2316 14.4931 21.4277V15.0254H20.8955C21.6994 15.0254 22.3508 14.3739 22.3508 13.5704C22.3508 12.7669 21.6986 12.115 20.8947 12.115Z" fill="white"/>
</g>
<defs>
<clipPath id="clip0_40:862">
<rect width="18.6257" height="18.6257" fill="white" transform="translate(3.7251 4.25732)"/>
</clipPath>
</defs>
</svg>
